<?xml version="1.0" encoding="UTF-8" standalone="no"?>
<svg
   version="1.0"
   width="1024.000000pt"
   height="1024.000000pt"
   viewBox="0 0 1024.000000 1024.000000"
   preserveAspectRatio="xMidYMid meet"
   id="svg21"
   sodipodi:docname="logos.svg"
   inkscape:version="1.4.2 (ebf0e940d0, 2025-05-08)"
   xmlns:inkscape="http://www.inkscape.org/namespaces/inkscape"
   xmlns:sodipodi="http://sodipodi.sourceforge.net/DTD/sodipodi-0.dtd"
   xmlns="http://www.w3.org/2000/svg"
   xmlns:svg="http://www.w3.org/2000/svg">
  <defs
     id="defs21" />
  <sodipodi:namedview
     id="namedview21"
     pagecolor="#ffffff"
     bordercolor="#666666"
     borderopacity="1.0"
     inkscape:showpageshadow="2"
     inkscape:pageopacity="0.0"
     inkscape:pagecheckerboard="0"
     inkscape:deskcolor="#d1d1d1"
     inkscape:document-units="pt"
     inkscape:current-layer="svg21" />
  <rect
     style="opacity:1;fill:#ebcb8b;stroke:#ebcb8b;stroke-width:15.12;stroke-linecap:round;stroke-linejoin:bevel;paint-order:markers stroke fill"
     id="rect22"
     width="1026.7147"
     height="1033.2778"
     x="-1.1718748"
     y="-2.9296873" />
  <g
     transform="translate(0.000000,1024.000000) scale(0.100000,-0.100000)"
     fill="#000000"
     stroke="none"
     id="g21">
    <path
       d="M3764 8946 c-209 -40 -421 -132 -552 -239 -179 -147 -320 -324 -427 -537 -83 -165 -136 -337 -205 -665 -50 -240 -103 -361 -256 -587 -153 -224 -197 -343 -198 -533 -1 -166 32 -269 109 -347 39 -40 83 -50 103 -25 5 6 12 55 14 107 3 61 11 109 23 135 l18 40 12 -65 c35 -175 110 -291 245 -378 105 -67 259 -93 301 -51 19 19 21 29 15 81 l-6 59 28 -20 c16 -11 35 -27 42 -37 24 -28 132 -97 190 -121 44 -18 51 -23 35 -29 -226 -78 -453 -200 -630 -339 -210 -165 -429 -437 -404 -503 l8 -22 1775 2 c1379 2 1778 6 1787 15 35 35 -70 203 -221 353 -188 187 -410 311 -682 381 -27 6 -48 15 -48 18 0 4 37 13 83 20 144 23 258 67 352 136 20 14 20 13 20 -43 l0 -57 38 -3 c72 -6 194 96 249 209 36 74 65 164 74 227 4 32 12 52 19 52 20 0 172 -88 250 -144 252 -181 440 -349 604 -538 18 -20 57 -49 86 -63 62 -29 185 -51 236 -42 18 4 76 35 128 68 290 190 598 301 924 333 32 3 66 10 76 15 13 7 56 125 149 403 274 826 376 1144 376 1181 1 63 -42 79 -152 58 -23 -5 -45 -5 -47 -1 -3 4 4 34 15 65 45 131 15 164 -139 151 -265 -22 -556 -137 -788 -312 -123 -93 -119 -92 -143 -45 -27 53 -138 200 -203 268 -59 62 -175 156 -287 230 -80 54 -245 140 -294 154 -48 14 -73 -10 -87 -81 -6 -33 -14 -60 -18 -60 -3 0 -33 14 -65 30 -32 17 -71 30 -86 30 -33 0 -65 -29 -78 -72 -6 -18 -74 -226 -151 -463 -77 -236 -179 -551 -226 -700 -60 -186 -90 -264 -95 -254 -18 32 -51 301 -57 459 -4 114 0 219 11 342 20 219 20 310 1 468 -65 531 -365 997 -770 1198 -191 94 -432 127 -577 78 -42 -15 -51 -15 -105 0 -80 22 -307 27 -399 10z m743 -683 c198 -312 486 -527 803 -599 61 -14 71 -19 77 -41 7 -32 -3 -329 -17 -439 -5 -43 -14 -164 -20 -269 -21 -353 -68 -525 -199 -718 -193 -287 -535 -448 -866 -408 -158 19 -267 50 -421 121 -304 140 -513 362 -604 639 l-32 97 -66 -4 c-133 -7 -245 62 -306 191 -81 168 -73 372 15 452 35 32 45 35 97 35 77 0 172 -46 211 -101 14 -20 36 -42 47 -47 48 -23 119 56 181 202 19 44 40 86 47 92 6 6 63 28 126 48 158 52 245 94 380 183 235 157 449 407 491 576 6 26 13 47 15 47 2 0 21 -26 41 -57z m2081 -490 c118 -65 357 -253 407 -320 16 -21 42 -51 58 -68 62 -65 130 -185 98 -173 -5 2 -56 46 -113 99 -174 162 -377 324 -507 404 -34 21 -61 42 -61 47 0 16 25 48 38 48 8 0 44 -17 80 -37z m-302 -61 c163 -73 443 -285 681 -514 l92 -88 -155 -473 c-85 -259 -179 -548 -209 -642 -30 -93 -65 -201 -79 -240 -14 -38 -26 -80 -26 -92 0 -39 -17 -34 -61 20 -57 69 -244 241 -344 318 -69 53 -333 232 -391 265 -18 11 -18 14 13 110 17 55 95 299 173 544 148 463 248 776 255 798 6 15 5 15 51 -6z m1900 -225 c-26 -60 -34 -64 -141 -83 -152 -25 -380 -98 -510 -161 -38 -19 -89 -43 -113 -53 -43 -20 -43 -20 -29 0 24 34 147 125 237 174 90 50 216 105 315 138 78 26 248 57 258 48 4 -4 -3 -32 -17 -63z m177 -169 c-4 -7 -112 -323 -238 -703 l-231 -690 -34 -7 c-19 -4 -82 -16 -140 -27 -226 -42 -470 -129 -639 -227 -51 -30 -95 -53 -97 -52 -2 2 19 71 46 153 27 83 81 251 120 375 40 124 96 299 125 390 29 91 76 237 104 325 28 88 54 165 58 171 22 30 168 112 276 155 159 64 482 139 630 147 20 2 26 -1 20 -10z m-1118 -297 c56 -19 55 -15 20 -111 -13 -36 -49 -146 -80 -245 -31 -99 -90 -281 -130 -405 -56 -173 -200 -621 -230 -717 -3 -7 -16 -13 -31 -13 -32 0 -104 21 -104 30 0 4 13 47 30 96 16 49 45 139 64 199 59 189 335 1036 362 1113 14 39 31 72 38 71 6 0 34 -8 61 -18z m-3676 -1080 c106 -89 234 -156 400 -211 216 -72 381 -92 572 -70 106 12 114 12 123 -5 6 -9 28 -44 49 -77 l38 -60 -26 -39 c-99 -142 -262 -224 -470 -236 -162 -9 -311 26 -490 115 -106 54 -184 110 -290 211 l-78 74 17 26 c41 62 75 152 87 229 7 45 14 82 17 82 2 0 25 -17 51 -39z"
       id="path1" />
    <path
       d="M4935 7420 c-190 -38 -254 -59 -256 -82 -3 -29 4 -64 13 -75 16 -19 45 -16 242 23 100 20 191 38 204 40 40 8 65 42 59 81 -4 20 -8 37 -10 39 -14 15 -88 7 -252 -26z"
       id="path2" />
    <path
       d="M3797 7375 c-23 -23 -22 -81 2 -94 29 -16 266 -50 398 -57 l118 -7 38 42 c43 48 46 73 12 107 -28 28 -46 26 -103 -8 -32 -20 -33 -20 -175 1 -237 34 -271 36 -290 16z"
       id="path3" />
    <path
       d="M4886 7199 c-49 -12 -63 -23 -82 -67 -27 -66 -10 -140 41 -180 34 -27 65 -28 114 -2 94 47 93 216 -1 249 -17 6 -31 11 -32 10 -1 -1 -19 -5 -40 -10z"
       id="path4" />
    <path
       d="M3999 7181 c-70 -22 -96 -66 -86 -149 4 -38 12 -53 47 -85 36 -34 46 -38 73 -33 65 13 105 57 114 126 8 56 -19 114 -62 134 -36 17 -47 18 -86 7z"
       id="path5" />
    <path
       d="M4526 6769 c-22 -5 -48 -16 -57 -25 -24 -22 -30 -65 -13 -91 13 -21 19 -22 88 -17 64 6 77 4 102 -14 51 -37 89 -33 111 12 15 32 14 36 -3 72 -32 67 -115 89 -228 63z"
       id="path6" />
    <path
       d="M4360 6402 c-146 -49 -230 -123 -214 -187 13 -53 84 -53 134 -1 28 31 104 64 175 77 73 13 149 -1 213 -40 59 -37 95 -39 116 -9 61 87 -61 167 -264 174 -83 3 -117 0 -160 -14z"
       id="path7" />
    <path
       d="M2495 4456 c-27 -12 -37 -33 -114 -237 -136 -359 -239 -627 -254 -656 -8 -14 -32 -38 -53 -53 -33 -22 -38 -31 -35 -56 1 -16 5 -32 8 -36 2 -5 75 -8 162 -8 140 0 160 2 174 18 31 34 12 72 -43 86 -50 12 -55 20 -43 73 7 26 16 60 22 76 l11 27 162 -2 162 -3 23 -74 c25 -78 21 -101 -18 -101 -37 0 -53 -72 -20 -90 11 -6 91 -10 189 -10 150 0 172 2 192 18 33 26 21 69 -24 87 -18 8 -41 26 -50 40 -10 15 -64 153 -121 308 -174 477 -207 561 -224 579 -22 24 -70 31 -106 14z m55 -454 c29 -86 55 -163 57 -169 4 -10 -22 -13 -111 -13 -64 0 -116 4 -116 8 0 5 23 80 52 168 28 87 51 163 50 167 -2 5 2 6 7 3 5 -3 33 -77 61 -164z"
       id="path8" />
    <path
       d="M4354 4457 c-99 -26 -196 -80 -265 -149 -107 -107 -152 -225 -152 -398 0 -202 80 -349 246 -454 132 -83 376 -87 521 -8 100 54 168 172 131 228 -23 35 -51 30 -81 -16 -94 -142 -314 -174 -442 -64 -48 41 -97 135 -112 213 -5 29 -10 91 -10 137 0 196 62 321 189 377 35 15 59 19 121 15 105 -6 162 -39 196 -111 13 -29 24 -60 24 -69 0 -33 12 -48 39 -48 32 0 44 8 60 37 22 43 5 231 -24 263 -40 44 -332 74 -441 47z"
       id="path9" />
    <path
       d="M6959 4459 c-16 -6 -33 -24 -42 -47 -18 -41 -146 -379 -238 -625 -69 -188 -100 -247 -140 -271 -32 -19 -48 -60 -32 -85 8 -13 35 -16 150 -19 165 -3 193 4 193 48 0 28 -5 33 -50 52 -27 11 -50 26 -50 33 0 7 9 43 20 79 l21 66 163 0 164 0 21 -62 c26 -75 26 -97 4 -105 -57 -20 -82 -82 -42 -103 31 -17 361 -9 382 9 36 29 17 69 -45 100 -33 17 -41 36 -212 492 -69 185 -134 357 -145 382 -27 63 -60 79 -122 56z m8 -295 c-3 -3 19 -77 49 -165 30 -87 54 -164 54 -171 0 -10 -26 -12 -112 -10 -62 2 -114 5 -116 7 -2 2 81 247 113 333 2 6 8 12 11 12 4 0 5 -3 1 -6z"
       id="path10" />
    <path
       d="M9025 4463 c-23 -6 -55 -32 -55 -45 0 -5 -39 -108 -86 -231 -47 -122 -115 -301 -151 -397 -82 -221 -95 -244 -142 -275 -44 -27 -57 -55 -41 -85 10 -19 20 -20 166 -20 88 0 164 4 175 10 31 17 24 58 -12 78 -17 9 -41 24 -53 34 l-21 16 24 71 24 71 161 -2 160 -3 18 -55 c26 -84 24 -106 -11 -113 -55 -11 -78 -58 -45 -91 23 -24 369 -24 402 0 36 25 26 63 -22 90 -22 13 -45 33 -52 46 -12 23 -69 172 -179 463 -107 288 -156 410 -168 422 -15 15 -64 23 -92 16z m45 -463 c28 -85 54 -161 57 -167 3 -10 -22 -13 -111 -13 -66 0 -116 4 -116 9 0 6 24 82 54 170 30 88 53 162 52 164 -2 3 1 2 5 -2 4 -3 30 -76 59 -161z"
       id="path11" />
    <path
       d="M790 4426 c-21 -26 -8 -60 32 -78 29 -14 38 -25 43 -52 9 -47 -23 -624 -41 -733 -3 -24 -13 -36 -42 -50 -34 -16 -37 -22 -37 -58 l0 -40 146 -3 c162 -3 199 5 199 41 0 34 -19 55 -65 70 l-40 14 3 199 c2 110 7 244 10 299 l7 100 24 -70 c58 -172 232 -620 247 -637 25 -27 80 -24 99 5 19 30 80 182 186 465 45 119 85 221 89 225 4 4 10 -121 14 -279 l7 -286 -22 -24 c-12 -13 -28 -24 -34 -24 -18 0 -45 -34 -45 -56 0 -41 16 -44 211 -44 160 0 190 2 204 16 27 27 15 66 -27 89 -20 11 -42 31 -48 45 -20 43 -51 699 -36 748 4 12 23 29 42 38 32 15 35 20 32 53 l-3 36 -146 3 c-112 2 -149 -1 -157 -11 -10 -12 -59 -136 -217 -547 -49 -126 -65 -158 -65 -128 0 45 -209 607 -247 665 -15 22 -20 23 -163 23 -116 0 -150 -3 -160 -14z"
       id="path12" />
    <path
       d="M3122 4428 c-30 -30 -2 -88 42 -88 46 0 46 -2 46 -412 l0 -388 -40 -25 c-31 -20 -40 -31 -40 -53 0 -15 5 -33 12 -40 18 -18 657 -17 681 1 21 14 37 103 37 200 0 61 -2 68 -22 76 -33 12 -41 6 -74 -52 -24 -43 -41 -58 -93 -85 -59 -30 -70 -33 -145 -30 l-81 3 -3 392 -2 391 42 24 c38 21 43 28 43 58 l0 35 -195 3 c-144 2 -199 -1 -208 -10z"
       id="path13" />
    <path
       d="M4940 4425 c-21 -25 -3 -63 37 -80 21 -9 41 -21 45 -28 10 -15 10 -758 0 -773 -4 -7 -25 -20 -47 -30 -46 -22 -57 -54 -29 -85 16 -17 32 -19 196 -19 165 0 179 1 198 20 33 33 26 58 -25 80 l-45 19 -1 113 c-1 62 -3 130 -5 152 l-3 38 51 -4 c64 -7 94 -38 133 -137 35 -88 91 -190 123 -224 35 -37 108 -57 204 -57 89 0 118 11 118 43 0 32 -10 42 -61 64 -56 25 -85 61 -144 182 -29 59 -61 108 -91 136 -40 39 -43 46 -27 51 58 21 83 35 117 64 134 118 104 340 -58 435 -78 45 -149 55 -422 55 -211 0 -254 -2 -264 -15z m490 -109 c70 -29 100 -83 101 -184 1 -68 -33 -139 -80 -166 -22 -13 -60 -21 -110 -24 l-76 -4 -3 191 c-1 106 0 197 4 203 9 14 118 4 164 -16z"
       id="path14" />
    <path
       d="M5990 4426 c-20 -26 -8 -60 29 -77 63 -29 61 -18 61 -417 0 -230 -4 -370 -10 -383 -6 -10 -25 -26 -43 -35 -18 -9 -35 -22 -39 -28 -14 -21 -8 -55 11 -66 29 -15 384 -13 399 2 7 7 12 26 12 43 0 28 -6 34 -41 50 -22 10 -44 26 -50 36 -5 10 -9 174 -9 381 0 313 2 367 16 386 8 12 22 22 29 22 23 0 48 46 41 75 l-6 25 -194 0 c-157 0 -196 -3 -206 -14z"
       id="path15" />
    <path
       d="M7578 4416 c-14 -32 -5 -53 29 -68 67 -28 63 -3 63 -417 0 -216 -4 -382 -10 -391 -5 -8 -24 -19 -41 -25 -40 -14 -54 -34 -45 -68 9 -37 33 -39 332 -34 295 5 342 14 453 88 77 52 124 106 166 194 79 165 65 378 -33 531 -47 72 -105 124 -180 159 -95 45 -177 55 -463 55 l-259 0 -12 -24z m541 -101 c140 -49 203 -177 204 -410 0 -182 -48 -286 -160 -348 -74 -40 -239 -57 -258 -27 -11 18 -16 756 -5 784 l11 29 82 -6 c45 -3 102 -13 126 -22z"
       id="path16" />
    <path
       d="M4051 3099 c-213 -25 -391 -209 -422 -434 -49 -358 161 -624 495 -625 146 0 255 42 359 140 215 201 224 583 19 788 -110 110 -261 154 -451 131z m152 -125 c85 -29 148 -123 179 -267 6 -30 8 -106 6 -181 -6 -145 -23 -207 -80 -278 -85 -108 -236 -110 -334 -6 -77 81 -109 199 -101 373 6 133 23 201 64 263 66 97 161 132 266 96z"
       id="path17" />
    <path
       d="M5182 3095 c-103 -19 -175 -57 -260 -141 -80 -80 -114 -141 -137 -251 -56 -263 45 -501 256 -605 91 -45 142 -57 239 -58 142 0 267 47 361 137 103 98 146 196 156 354 10 169 -30 296 -129 404 -126 138 -295 194 -486 160z m183 -129 c61 -28 100 -66 131 -129 49 -96 68 -229 53 -369 -16 -141 -74 -242 -162 -283 -65 -31 -118 -31 -182 -1 -130 60 -192 208 -183 438 6 151 29 219 97 291 74 78 156 95 246 53z"
       id="path18" />
    <path
       d="M7180 3094 c-111 -30 -173 -83 -209 -179 -40 -106 -19 -225 51 -301 30 -32 80 -64 200 -125 177 -90 198 -110 198 -187 0 -61 -23 -98 -75 -122 -86 -39 -196 -17 -248 52 -14 18 -33 60 -41 92 -18 69 -30 86 -62 86 -31 0 -62 -35 -70 -78 -10 -50 1 -153 19 -188 26 -50 103 -84 218 -97 212 -24 367 42 439 185 58 117 35 252 -58 341 -23 22 -106 73 -198 120 -171 89 -204 118 -204 183 0 51 48 100 111 113 104 22 175 -21 213 -129 22 -63 23 -65 55 -63 49 2 65 24 65 86 -1 102 -12 145 -48 172 -63 48 -247 68 -356 39z"
       id="path19" />
    <path
       d="M2669 3073 c-39 -44 -31 -74 25 -93 21 -7 38 -21 45 -38 8 -19 10 -139 9 -387 l-3 -359 -42 -29 c-33 -22 -43 -35 -43 -56 0 -50 6 -51 274 -51 337 0 405 17 503 122 135 147 73 367 -121 427 l-59 18 55 25 c81 38 128 110 128 200 0 82 -64 169 -153 209 -50 23 -63 24 -327 27 -256 3 -277 2 -291 -15z m483 -107 c57 -38 75 -150 35 -227 -30 -57 -73 -79 -154 -79 l-63 0 0 166 0 167 78 -5 c50 -3 87 -10 104 -22z m5 -428 c96 -29 142 -197 80 -289 -36 -54 -81 -74 -163 -74 -106 0 -104 -5 -104 201 l0 173 38 4 c46 4 106 -2 149 -15z"
       id="path20" />
    <path
       d="M6433 3078 c-40 -19 -28 -70 22 -94 31 -14 33 -18 24 -43 -6 -16 -69 -98 -142 -182 l-132 -154 -3 156 c-1 86 1 167 6 180 5 13 27 33 48 44 28 14 40 27 42 46 5 46 -10 50 -224 47 l-199 -3 -3 -37 c-3 -35 -1 -38 45 -60 l48 -23 3 -372 c3 -415 7 -385 -66 -425 -23 -12 -32 -24 -32 -42 0 -52 15 -56 216 -56 172 0 185 1 205 21 29 29 21 49 -31 79 -55 32 -63 63 -57 202 4 93 21 148 47 148 5 0 39 -51 76 -112 115 -192 200 -313 228 -326 32 -14 223 -16 259 -3 53 20 41 68 -25 102 -22 11 -54 35 -71 52 -33 35 -297 432 -297 447 0 5 6 13 13 17 12 8 134 145 197 221 20 24 58 54 88 69 62 30 76 49 59 84 -12 24 -14 24 -167 26 -96 1 -164 -2 -177 -9z"
       id="path21" />
  </g>
</svg>
